<svg width="56" height="33" viewBox="0 0 56 33" fill="none" xmlns="http://www.w3.org/2000/svg">
<g id="Group 123">
<path id="Line 33" d="M48.6073 10.7202C49.2286 12.0573 50.8848 12.8336 52.3066 12.4539C53.7284 12.0742 54.3773 10.6824 53.756 9.34519C53.1347 8.008 51.4784 7.23179 50.0566 7.61147C48.6349 7.99116 47.986 9.38296 48.6073 10.7202ZM17.6816 19.4891L51.3926 10.4866L50.9707 9.5787L17.2598 18.5812L17.6816 19.4891Z" fill="#ED7D31"/>
<path id="Line 35" d="M31.6541 3.93207C32.2755 5.26926 33.9317 6.04547 35.3535 5.66579C36.7753 5.2861 37.4242 3.8943 36.8029 2.5571C36.1815 1.21991 34.5253 0.4437 33.1035 0.823385C31.6817 1.20307 31.0328 2.59487 31.6541 3.93207ZM0.728513 12.701L34.4394 3.69856L34.0176 2.79061L0.306643 11.7931L0.728513 12.701Z" fill="#ED7D31"/>
<path id="Line 36" d="M40.8133 23.9975C41.4346 25.3347 43.0909 26.1109 44.5127 25.7312C45.9344 25.3515 46.5833 23.9597 45.962 22.6225C45.3407 21.2853 43.6845 20.5091 42.2627 20.8888C40.8409 21.2685 40.192 22.6603 40.8133 23.9975ZM9.88769 32.7665L43.5986 23.764L43.1767 22.856L9.46582 31.8585L9.88769 32.7665Z" fill="#ED7D31"/>
</g>
</svg>
