<svg width="52" height="50" viewBox="0 0 52 50" fill="none" xmlns="http://www.w3.org/2000/svg">
<ellipse cx="25.9199" cy="25" rx="25" ry="25.1914" transform="rotate(-90 25.9199 25)" fill="#ED7D31" fill-opacity="0.14"/>
<path fill-rule="evenodd" clip-rule="evenodd" d="M38.7835 39H13.2181C11.9926 39 11 38.0684 11 36.9195V12.0789C11 10.9316 11.9926 10 13.2181 10H38.7835C40.0074 10 41 10.9316 41 12.0789V36.9195C41 38.0684 40.0074 39 38.7835 39V39ZM16.1982 34.2228H20.6163V21.1299H16.1982V34.2228V34.2228ZM18.4383 14.8192C16.9261 14.8192 15.9395 15.7959 15.9395 17.0815C15.9395 18.3366 16.8976 19.3438 18.3798 19.3438H18.4083C19.9491 19.3438 20.9072 18.3366 20.9072 17.0815C20.8801 15.7959 19.9491 14.8192 18.4383 14.8192V14.8192ZM36.548 26.7166C36.548 22.6939 34.3675 20.8226 31.4617 20.8226C29.116 20.8226 28.0678 22.0922 27.4806 22.9852V21.1299H23.0625C23.1211 22.3593 23.0625 34.2228 23.0625 34.2228H27.4806V26.9113C27.4806 26.5219 27.5091 26.1293 27.6262 25.8509C27.9446 25.0689 28.673 24.2595 29.8924 24.2595C31.4917 24.2595 32.1299 25.4599 32.1299 27.2202V34.2228H36.548V26.7166V26.7166ZM27.4502 23.0283C27.4592 23.0138 27.4712 22.9993 27.4802 22.9849V23.0283H27.4502V23.0283Z" fill="black"/>
</svg>
