<svg width="75" height="13" viewBox="0 0 75 13" fill="none" xmlns="http://www.w3.org/2000/svg">
<g id="Group 202">
<g id="Group 124">
<path id="Line 34" d="M0.666667 7.48874C0.666667 10.4343 3.05448 12.8221 6 12.8221C8.94552 12.8221 11.3333 10.4343 11.3333 7.48874C11.3333 4.54323 8.94552 2.15541 6 2.15541C3.05448 2.15541 0.666667 4.54323 0.666667 7.48874ZM6.40806 8.4017C14.5118 4.77957 20.7996 2.99057 26.1572 2.32178C31.5045 1.65428 35.9718 2.09666 40.4527 2.99446C49.4019 4.78755 58.6354 8.48897 74.7003 8.48876L74.7003 6.48876C58.8983 6.48896 50.1137 2.89042 40.8456 1.03343C36.2178 0.106195 31.5266 -0.363995 25.9095 0.337178C20.3028 1.03706 13.8203 2.89798 5.59194 6.57579L6.40806 8.4017Z" fill="#ED7D31"/>
</g>
</g>
</svg>
