<svg width="184" height="27" viewBox="0 0 184 27" fill="none" xmlns="http://www.w3.org/2000/svg">
<path d="M13.6835 7.418L8.91348 20H7.47348L2.70348 7.418H4.07148L8.19348 18.632L12.3515 7.418H13.6835ZM16.2067 8.318C15.9547 8.318 15.7387 8.228 15.5587 8.048C15.3787 7.868 15.2887 7.646 15.2887 7.382C15.2887 7.118 15.3787 6.902 15.5587 6.734C15.7387 6.554 15.9547 6.464 16.2067 6.464C16.4587 6.464 16.6747 6.554 16.8547 6.734C17.0347 6.902 17.1247 7.118 17.1247 7.382C17.1247 7.646 17.0347 7.868 16.8547 8.048C16.6747 8.228 16.4587 8.318 16.2067 8.318ZM16.8367 10.172V20H15.5767V10.172H16.8367ZM28.582 14.582C28.582 15.014 28.57 15.344 28.546 15.572H20.392C20.428 16.316 20.608 16.952 20.932 17.48C21.256 18.008 21.682 18.41 22.21 18.686C22.738 18.95 23.314 19.082 23.938 19.082C24.754 19.082 25.438 18.884 25.99 18.488C26.554 18.092 26.926 17.558 27.106 16.886H28.438C28.198 17.846 27.682 18.632 26.89 19.244C26.11 19.844 25.126 20.144 23.938 20.144C23.014 20.144 22.186 19.94 21.454 19.532C20.722 19.112 20.146 18.524 19.726 17.768C19.318 17 19.114 16.106 19.114 15.086C19.114 14.066 19.318 13.172 19.726 12.404C20.134 11.636 20.704 11.048 21.436 10.64C22.168 10.232 23.002 10.028 23.938 10.028C24.874 10.028 25.69 10.232 26.386 10.64C27.094 11.048 27.634 11.6 28.006 12.296C28.39 12.98 28.582 13.742 28.582 14.582ZM27.304 14.546C27.316 13.814 27.166 13.19 26.854 12.674C26.554 12.158 26.14 11.768 25.612 11.504C25.084 11.24 24.508 11.108 23.884 11.108C22.948 11.108 22.15 11.408 21.49 12.008C20.83 12.608 20.464 13.454 20.392 14.546H27.304ZM43.8473 10.172L40.7693 20H39.5093L36.7913 11.756L34.0733 20H32.7953L29.7173 10.172H30.9953L33.4433 18.722L36.1973 10.172H37.4573L40.1753 18.74L42.6053 10.172H43.8473ZM54.8065 20.144C53.8825 20.144 53.0485 19.94 52.3045 19.532C51.5725 19.112 50.9905 18.524 50.5585 17.768C50.1385 17 49.9285 16.106 49.9285 15.086C49.9285 14.066 50.1445 13.178 50.5765 12.422C51.0085 11.654 51.5965 11.066 52.3405 10.658C53.0845 10.238 53.9185 10.028 54.8425 10.028C55.7665 10.028 56.6005 10.238 57.3445 10.658C58.1005 11.066 58.6885 11.654 59.1085 12.422C59.5405 13.178 59.7565 14.066 59.7565 15.086C59.7565 16.094 59.5405 16.982 59.1085 17.75C58.6765 18.518 58.0825 19.112 57.3265 19.532C56.5705 19.94 55.7305 20.144 54.8065 20.144ZM54.8065 19.046C55.4545 19.046 56.0545 18.902 56.6065 18.614C57.1585 18.314 57.6025 17.87 57.9385 17.282C58.2865 16.682 58.4605 15.95 58.4605 15.086C58.4605 14.222 58.2925 13.496 57.9565 12.908C57.6205 12.308 57.1765 11.864 56.6245 11.576C56.0725 11.276 55.4725 11.126 54.8245 11.126C54.1765 11.126 53.5765 11.276 53.0245 11.576C52.4725 11.864 52.0285 12.308 51.6925 12.908C51.3685 13.496 51.2065 14.222 51.2065 15.086C51.2065 15.95 51.3685 16.682 51.6925 17.282C52.0285 17.87 52.4665 18.314 53.0065 18.614C53.5585 18.902 54.1585 19.046 54.8065 19.046ZM70.5673 10.172V20H69.3073V18.272C69.0193 18.884 68.5753 19.352 67.9753 19.676C67.3753 20 66.7033 20.162 65.9593 20.162C64.7833 20.162 63.8233 19.802 63.0793 19.082C62.3353 18.35 61.9633 17.294 61.9633 15.914V10.172H63.2053V15.77C63.2053 16.838 63.4693 17.654 63.9973 18.218C64.5373 18.782 65.2693 19.064 66.1933 19.064C67.1413 19.064 67.8973 18.764 68.4613 18.164C69.0253 17.564 69.3073 16.682 69.3073 15.518V10.172H70.5673ZM74.7039 11.918C74.9799 11.306 75.3999 10.832 75.9639 10.496C76.5399 10.16 77.2419 9.992 78.0699 9.992V11.306H77.7279C76.8159 11.306 76.0839 11.552 75.5319 12.044C74.9799 12.536 74.7039 13.358 74.7039 14.51V20H73.4439V10.172H74.7039V11.918ZM88.2888 20.144C87.1608 20.144 86.2368 19.886 85.5168 19.37C84.8088 18.842 84.4128 18.128 84.3288 17.228H85.6248C85.6848 17.78 85.9428 18.23 86.3988 18.578C86.8668 18.914 87.4908 19.082 88.2708 19.082C88.9548 19.082 89.4888 18.92 89.8728 18.596C90.2688 18.272 90.4668 17.87 90.4668 17.39C90.4668 17.054 90.3588 16.778 90.1428 16.562C89.9268 16.346 89.6508 16.178 89.3148 16.058C88.9908 15.926 88.5468 15.788 87.9828 15.644C87.2508 15.452 86.6568 15.26 86.2008 15.068C85.7448 14.876 85.3548 14.594 85.0308 14.222C84.7188 13.838 84.5628 13.328 84.5628 12.692C84.5628 12.212 84.7068 11.768 84.9948 11.36C85.2828 10.952 85.6908 10.628 86.2188 10.388C86.7468 10.148 87.3468 10.028 88.0188 10.028C89.0748 10.028 89.9268 10.298 90.5748 10.838C91.2228 11.366 91.5708 12.098 91.6188 13.034H90.3588C90.3228 12.458 90.0948 11.996 89.6748 11.648C89.2668 11.288 88.7028 11.108 87.9828 11.108C87.3468 11.108 86.8308 11.258 86.4348 11.558C86.0388 11.858 85.8408 12.23 85.8408 12.674C85.8408 13.058 85.9548 13.376 86.1828 13.628C86.4228 13.868 86.7168 14.06 87.0648 14.204C87.4128 14.336 87.8808 14.486 88.4688 14.654C89.1768 14.846 89.7408 15.032 90.1608 15.212C90.5808 15.392 90.9408 15.656 91.2408 16.004C91.5408 16.352 91.6968 16.814 91.7088 17.39C91.7088 17.918 91.5648 18.392 91.2768 18.812C90.9888 19.22 90.5868 19.544 90.0708 19.784C89.5548 20.024 88.9608 20.144 88.2888 20.144ZM102.973 14.582C102.973 15.014 102.961 15.344 102.937 15.572H94.7826C94.8186 16.316 94.9986 16.952 95.3226 17.48C95.6466 18.008 96.0726 18.41 96.6006 18.686C97.1286 18.95 97.7046 19.082 98.3286 19.082C99.1446 19.082 99.8286 18.884 100.381 18.488C100.945 18.092 101.317 17.558 101.497 16.886H102.829C102.589 17.846 102.073 18.632 101.281 19.244C100.501 19.844 99.5166 20.144 98.3286 20.144C97.4046 20.144 96.5766 19.94 95.8446 19.532C95.1126 19.112 94.5366 18.524 94.1166 17.768C93.7086 17 93.5046 16.106 93.5046 15.086C93.5046 14.066 93.7086 13.172 94.1166 12.404C94.5246 11.636 95.0946 11.048 95.8266 10.64C96.5586 10.232 97.3926 10.028 98.3286 10.028C99.2646 10.028 100.081 10.232 100.777 10.64C101.485 11.048 102.025 11.6 102.397 12.296C102.781 12.98 102.973 13.742 102.973 14.582ZM101.695 14.546C101.707 13.814 101.557 13.19 101.245 12.674C100.945 12.158 100.531 11.768 100.003 11.504C99.4746 11.24 98.8986 11.108 98.2746 11.108C97.3386 11.108 96.5406 11.408 95.8806 12.008C95.2206 12.608 94.8546 13.454 94.7826 14.546H101.695ZM106.538 11.918C106.814 11.306 107.234 10.832 107.798 10.496C108.374 10.16 109.076 9.992 109.904 9.992V11.306H109.562C108.65 11.306 107.918 11.552 107.366 12.044C106.814 12.536 106.538 13.358 106.538 14.51V20H105.278V10.172H106.538V11.918ZM115.291 18.776L118.603 10.172H119.935L115.993 20H114.571L110.629 10.172H111.979L115.291 18.776ZM122.273 8.318C122.021 8.318 121.805 8.228 121.625 8.048C121.445 7.868 121.355 7.646 121.355 7.382C121.355 7.118 121.445 6.902 121.625 6.734C121.805 6.554 122.021 6.464 122.273 6.464C122.525 6.464 122.741 6.554 122.921 6.734C123.101 6.902 123.191 7.118 123.191 7.382C123.191 7.646 123.101 7.868 122.921 8.048C122.741 8.228 122.525 8.318 122.273 8.318ZM122.903 10.172V20H121.643V10.172H122.903ZM125.18 15.086C125.18 14.066 125.384 13.178 125.792 12.422C126.2 11.654 126.764 11.066 127.484 10.658C128.204 10.238 129.026 10.028 129.95 10.028C131.162 10.028 132.158 10.328 132.938 10.928C133.73 11.528 134.24 12.344 134.468 13.376H133.118C132.95 12.668 132.584 12.116 132.02 11.72C131.468 11.312 130.778 11.108 129.95 11.108C129.29 11.108 128.696 11.258 128.168 11.558C127.64 11.858 127.22 12.308 126.908 12.908C126.608 13.496 126.458 14.222 126.458 15.086C126.458 15.95 126.608 16.682 126.908 17.282C127.22 17.882 127.64 18.332 128.168 18.632C128.696 18.932 129.29 19.082 129.95 19.082C130.778 19.082 131.468 18.884 132.02 18.488C132.584 18.08 132.95 17.516 133.118 16.796H134.468C134.24 17.804 133.73 18.614 132.938 19.226C132.146 19.838 131.15 20.144 129.95 20.144C129.026 20.144 128.204 19.94 127.484 19.532C126.764 19.112 126.2 18.524 125.792 17.768C125.384 17 125.18 16.106 125.18 15.086ZM145.687 14.582C145.687 15.014 145.675 15.344 145.651 15.572H137.497C137.533 16.316 137.713 16.952 138.037 17.48C138.361 18.008 138.787 18.41 139.315 18.686C139.843 18.95 140.419 19.082 141.043 19.082C141.859 19.082 142.543 18.884 143.095 18.488C143.659 18.092 144.031 17.558 144.211 16.886H145.543C145.303 17.846 144.787 18.632 143.995 19.244C143.215 19.844 142.231 20.144 141.043 20.144C140.119 20.144 139.291 19.94 138.559 19.532C137.827 19.112 137.251 18.524 136.831 17.768C136.423 17 136.219 16.106 136.219 15.086C136.219 14.066 136.423 13.172 136.831 12.404C137.239 11.636 137.809 11.048 138.541 10.64C139.273 10.232 140.107 10.028 141.043 10.028C141.979 10.028 142.795 10.232 143.491 10.64C144.199 11.048 144.739 11.6 145.111 12.296C145.495 12.98 145.687 13.742 145.687 14.582ZM144.409 14.546C144.421 13.814 144.271 13.19 143.959 12.674C143.659 12.158 143.245 11.768 142.717 11.504C142.189 11.24 141.613 11.108 140.989 11.108C140.053 11.108 139.255 11.408 138.595 12.008C137.935 12.608 137.569 13.454 137.497 14.546H144.409ZM151.377 20.144C150.249 20.144 149.325 19.886 148.605 19.37C147.897 18.842 147.501 18.128 147.417 17.228H148.713C148.773 17.78 149.031 18.23 149.487 18.578C149.955 18.914 150.579 19.082 151.359 19.082C152.043 19.082 152.577 18.92 152.961 18.596C153.357 18.272 153.555 17.87 153.555 17.39C153.555 17.054 153.447 16.778 153.231 16.562C153.015 16.346 152.739 16.178 152.403 16.058C152.079 15.926 151.635 15.788 151.071 15.644C150.339 15.452 149.745 15.26 149.289 15.068C148.833 14.876 148.443 14.594 148.119 14.222C147.807 13.838 147.651 13.328 147.651 12.692C147.651 12.212 147.795 11.768 148.083 11.36C148.371 10.952 148.779 10.628 149.307 10.388C149.835 10.148 150.435 10.028 151.107 10.028C152.163 10.028 153.015 10.298 153.663 10.838C154.311 11.366 154.659 12.098 154.707 13.034H153.447C153.411 12.458 153.183 11.996 152.763 11.648C152.355 11.288 151.791 11.108 151.071 11.108C150.435 11.108 149.919 11.258 149.523 11.558C149.127 11.858 148.929 12.23 148.929 12.674C148.929 13.058 149.043 13.376 149.271 13.628C149.511 13.868 149.805 14.06 150.153 14.204C150.501 14.336 150.969 14.486 151.557 14.654C152.265 14.846 152.829 15.032 153.249 15.212C153.669 15.392 154.029 15.656 154.329 16.004C154.629 16.352 154.785 16.814 154.797 17.39C154.797 17.918 154.653 18.392 154.365 18.812C154.077 19.22 153.675 19.544 153.159 19.784C152.643 20.024 152.049 20.144 151.377 20.144Z" fill="black"/>
<line x1="3" y1="26.5" x2="156" y2="26.5" stroke="black"/>
<path d="M183.707 14.7071C184.098 14.3166 184.098 13.6834 183.707 13.2929L177.343 6.92893C176.953 6.53841 176.319 6.53841 175.929 6.92893C175.538 7.31946 175.538 7.95262 175.929 8.34315L181.586 14L175.929 19.6569C175.538 20.0474 175.538 20.6805 175.929 21.0711C176.319 21.4616 176.953 21.4616 177.343 21.0711L183.707 14.7071ZM168 15H183V13H168V15Z" fill="#D4693C"/>
</svg>
