<svg width="46" height="45" viewBox="0 0 46 45" fill="none" xmlns="http://www.w3.org/2000/svg">
<g id="Group 190">
<ellipse id="Ellipse 7" cx="23" cy="22.3982" rx="21.6814" ry="23" transform="rotate(-90 23 22.3982)" fill="#ED7D31" fill-opacity="0.14"/>
<path id="Vector" d="M30.608 31.678C30.5085 32.0196 30.2809 32.2669 29.9257 32.4202L25.7644 34.1967C25.57 34.292 25.3447 34.3519 25.0884 34.3762C24.832 34.4006 24.595 34.3908 24.3772 34.3468C24.3625 34.3417 24.3168 34.3298 24.2403 34.311C24.164 34.2923 24.0671 34.2623 23.9497 34.221C23.671 34.1229 23.2402 33.918 22.6574 33.6063C22.0746 33.2947 21.4117 32.7993 20.6688 32.1203C19.9256 31.4412 19.1412 30.5387 18.3153 29.4129C17.4894 28.2873 16.7086 26.8662 15.9731 25.15C15.3767 23.8104 14.9377 22.5752 14.656 21.4446C14.3743 20.3139 14.195 19.297 14.118 18.394C14.041 17.491 14.0355 16.695 14.1015 16.006C14.1675 15.317 14.2621 14.7364 14.3853 14.264C14.5084 13.7916 14.6335 13.4304 14.7604 13.1804V13.1804C14.9013 12.9031 15.0415 12.6197 15.2616 12.391C15.3153 12.3352 15.3728 12.2804 15.4342 12.2266C15.6274 12.0572 15.8253 11.9345 16.0281 11.8585L20.1988 10.0606C20.4915 9.93445 20.7698 9.91784 21.0338 10.0108C21.2245 10.0779 21.3698 10.1905 21.4697 10.3484C21.5696 10.5064 21.6366 10.6814 21.6706 10.8735L22.1253 16.0191C22.1575 16.2924 22.085 16.5534 21.9078 16.802C21.7306 17.0507 21.5061 17.2337 21.2344 17.3508L19.6978 18.0132C19.656 18.0312 19.6101 18.0683 19.56 18.1243V18.1243C19.4791 18.2148 19.442 18.3294 19.424 18.4445C19.38 18.7271 19.3732 19.0564 19.4037 19.4323C19.43 19.8345 19.5189 20.3447 19.6704 20.9629C19.8219 21.5811 20.0946 22.3279 20.4886 23.2034C20.8617 24.0879 21.2254 24.8012 21.5797 25.3435C21.9339 25.8856 22.2461 26.3026 22.5159 26.5941C22.7858 26.8856 23.0045 27.0813 23.1723 27.1812L23.2917 27.2524C23.3796 27.3048 23.4748 27.3469 23.5809 27.3497V27.3497C23.6563 27.3516 23.7149 27.3436 23.7567 27.3256L25.5535 26.5337C25.9174 26.4 26.2752 26.395 26.6273 26.5189C26.8713 26.6048 27.0482 26.7141 27.158 26.8468C27.1627 26.8526 27.1689 26.857 27.1762 26.8595V26.8595C27.1833 26.862 27.1895 26.8664 27.1941 26.872L30.3666 30.7825C30.5936 31.0754 30.674 31.3738 30.608 31.678Z" fill="white"/>
</g>
</svg>
