<svg width="46" height="44" viewBox="0 0 46 44" fill="none" xmlns="http://www.w3.org/2000/svg">
<g id="Group 189">
<ellipse id="Ellipse 10" cx="23" cy="21.6814" rx="21.6814" ry="23" transform="rotate(-90 23 21.6814)" fill="#ED7D31" fill-opacity="0.14"/>
<path id="Vector" d="M16.2454 23.1583L16.2392 23.1507L16.2327 23.1433C13.9067 20.5074 14.2125 16.0884 16.9631 13.7505C20.0633 11.1157 25.1178 11.1158 28.2175 13.7504C30.9681 16.0884 31.274 20.5074 28.948 23.1433L28.9414 23.1507L28.9352 23.1583L22.5903 30.9469L16.2454 23.1583ZM19.3942 18.358C19.3942 20.0115 20.941 21.2193 22.6723 21.2193C24.4035 21.2193 25.9503 20.0115 25.9503 18.358C25.9503 16.7046 24.4035 15.4968 22.6723 15.4968C20.941 15.4968 19.3942 16.7046 19.3942 18.358Z" fill="white" stroke="white"/>
</g>
</svg>
