<svg width="24" height="36" viewBox="0 0 24 36" fill="none" xmlns="http://www.w3.org/2000/svg">
<path id="Vector" d="M23.1491 29.9521C23.1488 30.4853 22.9823 30.9182 22.6502 31.2509L18.754 35.1215C18.5758 35.3205 18.3535 35.4767 18.0871 35.5896C17.8764 35.6791 17.6721 35.7334 17.474 35.7527C17.3708 35.7627 17.2652 35.7546 17.1605 35.7491C17.0731 35.7445 16.9602 35.7296 16.8219 35.7041C16.4935 35.6435 15.9695 35.4715 15.2499 35.188C14.5302 34.9044 13.668 34.3744 12.6631 33.598C11.6581 32.8215 10.5396 31.7283 9.3074 30.3189C8.07522 28.9095 6.79965 27.0514 5.4808 24.745C4.42764 22.9512 3.57504 21.264 2.92299 19.6834C2.27095 18.1026 1.76365 16.6588 1.40111 15.3517C1.03852 14.0447 0.785599 12.8737 0.6423 11.839C0.499002 10.8042 0.41986 9.92031 0.404875 9.18736C0.38989 8.45441 0.411442 7.88467 0.46953 7.47814C0.527618 7.07161 0.558929 6.84559 0.563464 6.80006C0.629763 6.48777 0.739829 6.17776 0.893662 5.87003C1.04749 5.56229 1.22101 5.32194 1.41421 5.14897L5.31384 1.244C5.5875 0.969967 5.87985 0.861646 6.19089 0.919036C6.41553 0.960484 6.60574 1.08251 6.76154 1.28511C6.91733 1.48771 7.04324 1.72536 7.13926 1.99806L9.22234 9.44084C9.34159 9.83373 9.34511 10.24 9.23292 10.6598C9.12072 11.0795 8.93757 11.4166 8.68346 11.671L7.24676 13.1097C7.20766 13.1489 7.17005 13.2173 7.13393 13.3149C7.07486 13.4746 7.07138 13.652 7.08801 13.8277C7.12866 14.2573 7.22361 14.7443 7.37287 15.2888C7.52582 15.8733 7.77918 16.5981 8.13296 17.4631C8.48674 18.3281 9.01007 19.346 9.70292 20.517C10.3762 21.7076 10.9864 22.6488 11.5333 23.3409C12.0802 24.0327 12.5433 24.5529 12.9222 24.901C13.301 25.2491 13.5957 25.4715 13.806 25.5681L13.9547 25.6365C14.0653 25.6875 14.1825 25.7205 14.295 25.6931C14.3761 25.6733 14.4363 25.6439 14.4754 25.6047L16.15 23.897C16.4975 23.5902 16.8784 23.4751 17.2931 23.5516C17.5812 23.6047 17.8043 23.7127 17.963 23.8756C17.9692 23.882 17.9771 23.8864 17.9855 23.888C17.9939 23.8895 18.0017 23.8938 18.0078 23.9002L22.6132 28.7057C22.9467 29.0688 23.1253 29.4841 23.1491 29.9521Z" fill="white"/>
</svg>
