<svg width="21" height="18" viewBox="0 0 21 18" fill="none" xmlns="http://www.w3.org/2000/svg">
<path d="M21 9.41324L13.367 10.7013L11.6915 18L10.109 10.7013L6.80452 10.0572L3.5 9.41324L10.109 6.83721L11.6915 0L13.367 6.83721L21 9.41324Z" fill="#ED7D31"/>
<path d="M5.83325 12.7377L3.28893 13.1671L2.73041 15.6L2.20293 13.1671L1.10143 12.9524L-8.2016e-05 12.7377L2.20293 11.879L2.73041 9.59998L3.28893 11.879L5.83325 12.7377Z" fill="#ED7D31"/>
<path d="M5.83325 5.53777L3.28893 5.96711L2.73041 8.40002L2.20293 5.96711L1.10143 5.75244L-8.2016e-05 5.53777L2.20293 4.67909L2.73041 2.40002L3.28893 4.67909L5.83325 5.53777Z" fill="#ED7D31"/>
</svg>
