<svg width="186" height="27" viewBox="0 0 186 27" fill="none" xmlns="http://www.w3.org/2000/svg">
<path d="M13.8026 7.418L9.03263 20H7.59263L2.82263 7.418H4.19063L8.31263 18.632L12.4706 7.418H13.8026ZM16.3259 8.318C16.0739 8.318 15.8579 8.228 15.6779 8.048C15.4979 7.868 15.4079 7.646 15.4079 7.382C15.4079 7.118 15.4979 6.902 15.6779 6.734C15.8579 6.554 16.0739 6.464 16.3259 6.464C16.5779 6.464 16.7939 6.554 16.9739 6.734C17.1539 6.902 17.2439 7.118 17.2439 7.382C17.2439 7.646 17.1539 7.868 16.9739 8.048C16.7939 8.228 16.5779 8.318 16.3259 8.318ZM16.9559 10.172V20H15.6959V10.172H16.9559ZM28.7011 14.582C28.7011 15.014 28.6891 15.344 28.6651 15.572H20.5111C20.5471 16.316 20.7271 16.952 21.0511 17.48C21.3751 18.008 21.8011 18.41 22.3291 18.686C22.8571 18.95 23.4331 19.082 24.0571 19.082C24.8731 19.082 25.5571 18.884 26.1091 18.488C26.6731 18.092 27.0451 17.558 27.2251 16.886H28.5571C28.3171 17.846 27.8011 18.632 27.0091 19.244C26.2291 19.844 25.2451 20.144 24.0571 20.144C23.1331 20.144 22.3051 19.94 21.5731 19.532C20.8411 19.112 20.2651 18.524 19.8451 17.768C19.4371 17 19.2331 16.106 19.2331 15.086C19.2331 14.066 19.4371 13.172 19.8451 12.404C20.2531 11.636 20.8231 11.048 21.5551 10.64C22.2871 10.232 23.1211 10.028 24.0571 10.028C24.9931 10.028 25.8091 10.232 26.5051 10.64C27.2131 11.048 27.7531 11.6 28.1251 12.296C28.5091 12.98 28.7011 13.742 28.7011 14.582ZM27.4231 14.546C27.4351 13.814 27.2851 13.19 26.9731 12.674C26.6731 12.158 26.2591 11.768 25.7311 11.504C25.2031 11.24 24.6271 11.108 24.0031 11.108C23.0671 11.108 22.2691 11.408 21.6091 12.008C20.9491 12.608 20.5831 13.454 20.5111 14.546H27.4231ZM43.9664 10.172L40.8884 20H39.6284L36.9104 11.756L34.1924 20H32.9144L29.8364 10.172H31.1144L33.5624 18.722L36.3164 10.172H37.5764L40.2944 18.74L42.7244 10.172H43.9664ZM56.2756 20.126C55.1116 20.126 54.0556 19.856 53.1076 19.316C52.1596 18.764 51.4096 18.002 50.8576 17.03C50.3176 16.046 50.0476 14.936 50.0476 13.7C50.0476 12.464 50.3176 11.36 50.8576 10.388C51.4096 9.404 52.1596 8.642 53.1076 8.102C54.0556 7.55 55.1116 7.274 56.2756 7.274C57.4516 7.274 58.5136 7.55 59.4616 8.102C60.4096 8.642 61.1536 9.404 61.6936 10.388C62.2336 11.36 62.5036 12.464 62.5036 13.7C62.5036 14.936 62.2336 16.046 61.6936 17.03C61.1536 18.002 60.4096 18.764 59.4616 19.316C58.5136 19.856 57.4516 20.126 56.2756 20.126ZM56.2756 19.028C57.2116 19.028 58.0516 18.812 58.7956 18.38C59.5396 17.948 60.1276 17.33 60.5596 16.526C60.9916 15.71 61.2076 14.768 61.2076 13.7C61.2076 12.632 60.9916 11.696 60.5596 10.892C60.1276 10.088 59.5396 9.47 58.7956 9.038C58.0516 8.606 57.2116 8.39 56.2756 8.39C55.3396 8.39 54.4996 8.606 53.7556 9.038C53.0116 9.47 52.4236 10.088 51.9916 10.892C51.5596 11.696 51.3436 12.632 51.3436 13.7C51.3436 14.768 51.5596 15.71 51.9916 16.526C52.4236 17.33 53.0116 17.948 53.7556 18.38C54.4996 18.812 55.3396 19.028 56.2756 19.028ZM73.3231 10.172V20H72.0631V18.272C71.7751 18.884 71.3311 19.352 70.7311 19.676C70.1311 20 69.4591 20.162 68.7151 20.162C67.5391 20.162 66.5791 19.802 65.8351 19.082C65.0911 18.35 64.7191 17.294 64.7191 15.914V10.172H65.9611V15.77C65.9611 16.838 66.2251 17.654 66.7531 18.218C67.2931 18.782 68.0251 19.064 68.9491 19.064C69.8971 19.064 70.6531 18.764 71.2171 18.164C71.7811 17.564 72.0631 16.682 72.0631 15.518V10.172H73.3231ZM77.4598 11.918C77.7358 11.306 78.1558 10.832 78.7198 10.496C79.2958 10.16 79.9978 9.992 80.8258 9.992V11.306H80.4838C79.5718 11.306 78.8398 11.552 78.2878 12.044C77.7358 12.536 77.4598 13.358 77.4598 14.51V20H76.1998V10.172H77.4598V11.918ZM91.4767 20.126C90.6487 20.126 89.9167 19.982 89.2807 19.694C88.6567 19.406 88.1647 19.004 87.8047 18.488C87.4447 17.972 87.2527 17.396 87.2287 16.76H88.5607C88.6207 17.372 88.8907 17.912 89.3707 18.38C89.8507 18.836 90.5527 19.064 91.4767 19.064C92.3287 19.064 93.0007 18.848 93.4927 18.416C93.9967 17.972 94.2487 17.414 94.2487 16.742C94.2487 16.202 94.1107 15.77 93.8347 15.446C93.5587 15.11 93.2167 14.864 92.8087 14.708C92.4007 14.54 91.8367 14.36 91.1167 14.168C90.2767 13.94 89.6107 13.718 89.1187 13.502C88.6267 13.286 88.2067 12.95 87.8587 12.494C87.5107 12.038 87.3367 11.42 87.3367 10.64C87.3367 9.992 87.5047 9.416 87.8407 8.912C88.1767 8.396 88.6507 7.994 89.2627 7.706C89.8747 7.418 90.5767 7.274 91.3687 7.274C92.5327 7.274 93.4687 7.562 94.1767 8.138C94.8967 8.702 95.3107 9.434 95.4187 10.334H94.0507C93.9667 9.818 93.6847 9.362 93.2047 8.966C92.7247 8.558 92.0767 8.354 91.2607 8.354C90.5047 8.354 89.8747 8.558 89.3707 8.966C88.8667 9.362 88.6147 9.908 88.6147 10.604C88.6147 11.132 88.7527 11.558 89.0287 11.882C89.3047 12.206 89.6467 12.452 90.0547 12.62C90.4747 12.788 91.0387 12.968 91.7467 13.16C92.5627 13.388 93.2227 13.616 93.7267 13.844C94.2307 14.06 94.6567 14.396 95.0047 14.852C95.3527 15.308 95.5267 15.92 95.5267 16.688C95.5267 17.276 95.3707 17.834 95.0587 18.362C94.7467 18.89 94.2847 19.316 93.6727 19.64C93.0607 19.964 92.3287 20.126 91.4767 20.126ZM106.853 14.582C106.853 15.014 106.841 15.344 106.817 15.572H98.6635C98.6995 16.316 98.8795 16.952 99.2035 17.48C99.5275 18.008 99.9535 18.41 100.481 18.686C101.009 18.95 101.585 19.082 102.209 19.082C103.025 19.082 103.709 18.884 104.261 18.488C104.825 18.092 105.197 17.558 105.377 16.886H106.709C106.469 17.846 105.953 18.632 105.161 19.244C104.381 19.844 103.397 20.144 102.209 20.144C101.285 20.144 100.457 19.94 99.7255 19.532C98.9935 19.112 98.4175 18.524 97.9975 17.768C97.5895 17 97.3855 16.106 97.3855 15.086C97.3855 14.066 97.5895 13.172 97.9975 12.404C98.4055 11.636 98.9755 11.048 99.7075 10.64C100.439 10.232 101.273 10.028 102.209 10.028C103.145 10.028 103.961 10.232 104.657 10.64C105.365 11.048 105.905 11.6 106.277 12.296C106.661 12.98 106.853 13.742 106.853 14.582ZM105.575 14.546C105.587 13.814 105.437 13.19 105.125 12.674C104.825 12.158 104.411 11.768 103.883 11.504C103.355 11.24 102.779 11.108 102.155 11.108C101.219 11.108 100.421 11.408 99.7615 12.008C99.1015 12.608 98.7355 13.454 98.6635 14.546H105.575ZM110.419 11.918C110.695 11.306 111.115 10.832 111.679 10.496C112.255 10.16 112.957 9.992 113.785 9.992V11.306H113.443C112.531 11.306 111.799 11.552 111.247 12.044C110.695 12.536 110.419 13.358 110.419 14.51V20H109.159V10.172H110.419V11.918ZM119.172 18.776L122.484 10.172H123.816L119.874 20H118.452L114.51 10.172H115.86L119.172 18.776ZM126.154 8.318C125.902 8.318 125.686 8.228 125.506 8.048C125.326 7.868 125.236 7.646 125.236 7.382C125.236 7.118 125.326 6.902 125.506 6.734C125.686 6.554 125.902 6.464 126.154 6.464C126.406 6.464 126.622 6.554 126.802 6.734C126.982 6.902 127.072 7.118 127.072 7.382C127.072 7.646 126.982 7.868 126.802 8.048C126.622 8.228 126.406 8.318 126.154 8.318ZM126.784 10.172V20H125.524V10.172H126.784ZM129.061 15.086C129.061 14.066 129.265 13.178 129.673 12.422C130.081 11.654 130.645 11.066 131.365 10.658C132.085 10.238 132.907 10.028 133.831 10.028C135.043 10.028 136.039 10.328 136.819 10.928C137.611 11.528 138.121 12.344 138.349 13.376H136.999C136.831 12.668 136.465 12.116 135.901 11.72C135.349 11.312 134.659 11.108 133.831 11.108C133.171 11.108 132.577 11.258 132.049 11.558C131.521 11.858 131.101 12.308 130.789 12.908C130.489 13.496 130.339 14.222 130.339 15.086C130.339 15.95 130.489 16.682 130.789 17.282C131.101 17.882 131.521 18.332 132.049 18.632C132.577 18.932 133.171 19.082 133.831 19.082C134.659 19.082 135.349 18.884 135.901 18.488C136.465 18.08 136.831 17.516 136.999 16.796H138.349C138.121 17.804 137.611 18.614 136.819 19.226C136.027 19.838 135.031 20.144 133.831 20.144C132.907 20.144 132.085 19.94 131.365 19.532C130.645 19.112 130.081 18.524 129.673 17.768C129.265 17 129.061 16.106 129.061 15.086ZM149.568 14.582C149.568 15.014 149.556 15.344 149.532 15.572H141.378C141.414 16.316 141.594 16.952 141.918 17.48C142.242 18.008 142.668 18.41 143.196 18.686C143.724 18.95 144.3 19.082 144.924 19.082C145.74 19.082 146.424 18.884 146.976 18.488C147.54 18.092 147.912 17.558 148.092 16.886H149.424C149.184 17.846 148.668 18.632 147.876 19.244C147.096 19.844 146.112 20.144 144.924 20.144C144 20.144 143.172 19.94 142.44 19.532C141.708 19.112 141.132 18.524 140.712 17.768C140.304 17 140.1 16.106 140.1 15.086C140.1 14.066 140.304 13.172 140.712 12.404C141.12 11.636 141.69 11.048 142.422 10.64C143.154 10.232 143.988 10.028 144.924 10.028C145.86 10.028 146.676 10.232 147.372 10.64C148.08 11.048 148.62 11.6 148.992 12.296C149.376 12.98 149.568 13.742 149.568 14.582ZM148.29 14.546C148.302 13.814 148.152 13.19 147.84 12.674C147.54 12.158 147.126 11.768 146.598 11.504C146.07 11.24 145.494 11.108 144.87 11.108C143.934 11.108 143.136 11.408 142.476 12.008C141.816 12.608 141.45 13.454 141.378 14.546H148.29ZM155.258 20.144C154.13 20.144 153.206 19.886 152.486 19.37C151.778 18.842 151.382 18.128 151.298 17.228H152.594C152.654 17.78 152.912 18.23 153.368 18.578C153.836 18.914 154.46 19.082 155.24 19.082C155.924 19.082 156.458 18.92 156.842 18.596C157.238 18.272 157.436 17.87 157.436 17.39C157.436 17.054 157.328 16.778 157.112 16.562C156.896 16.346 156.62 16.178 156.284 16.058C155.96 15.926 155.516 15.788 154.952 15.644C154.22 15.452 153.626 15.26 153.17 15.068C152.714 14.876 152.324 14.594 152 14.222C151.688 13.838 151.532 13.328 151.532 12.692C151.532 12.212 151.676 11.768 151.964 11.36C152.252 10.952 152.66 10.628 153.188 10.388C153.716 10.148 154.316 10.028 154.988 10.028C156.044 10.028 156.896 10.298 157.544 10.838C158.192 11.366 158.54 12.098 158.588 13.034H157.328C157.292 12.458 157.064 11.996 156.644 11.648C156.236 11.288 155.672 11.108 154.952 11.108C154.316 11.108 153.8 11.258 153.404 11.558C153.008 11.858 152.81 12.23 152.81 12.674C152.81 13.058 152.924 13.376 153.152 13.628C153.392 13.868 153.686 14.06 154.034 14.204C154.382 14.336 154.85 14.486 155.438 14.654C156.146 14.846 156.71 15.032 157.13 15.212C157.55 15.392 157.91 15.656 158.21 16.004C158.51 16.352 158.666 16.814 158.678 17.39C158.678 17.918 158.534 18.392 158.246 18.812C157.958 19.22 157.556 19.544 157.04 19.784C156.524 20.024 155.93 20.144 155.258 20.144Z" fill="black"/>
<line x1="-7.63918e-10" y1="26.5" x2="162" y2="26.5" stroke="black"/>
<path d="M185.707 14.7071C186.098 14.3166 186.098 13.6834 185.707 13.2929L179.343 6.92893C178.953 6.53841 178.319 6.53841 177.929 6.92893C177.538 7.31946 177.538 7.95262 177.929 8.34315L183.586 14L177.929 19.6569C177.538 20.0474 177.538 20.6805 177.929 21.0711C178.319 21.4616 178.953 21.4616 179.343 21.0711L185.707 14.7071ZM170 15H185V13H170V15Z" fill="#D4693C"/>
</svg>
